<?xml version="1.0" encoding="UTF-8" standalone="no"?>
<svg
   xmlns:dc="http://purl.org/dc/elements/1.1/"
   xmlns:cc="http://creativecommons.org/ns#"
   xmlns:rdf="http://www.w3.org/1999/02/22-rdf-syntax-ns#"
   xmlns:svg="http://www.w3.org/2000/svg"
   xmlns="http://www.w3.org/2000/svg"
   id="svg8"
   version="1.1"
   viewBox="0 0 210 297"
   height="297mm"
   width="210mm">
  <defs
     id="defs2" />
  <metadata
     id="metadata5">
    <rdf:RDF>
      <cc:Work
         rdf:about="">
        <dc:format>image/svg+xml</dc:format>
        <dc:type
           rdf:resource="http://purl.org/dc/dcmitype/StillImage" />
        <dc:title></dc:title>
      </cc:Work>
    </rdf:RDF>
  </metadata>
  <g
     id="layer1">
    <path
       style="stroke-width:0.26458332"
       d="m 82.770601,128.04511 c 1.014433,0.47234 2.103326,0.47466 3.191645,0.35822 1.633111,-0.29305 3.193679,-0.90885 4.74995,-1.47068 1.78825,-0.67604 3.631732,-1.17356 5.468496,-1.69449 1.521095,-0.39867 2.991667,-0.95588 4.482518,-1.44873 1.27858,-0.53247 2.62511,-0.76634 3.98287,-0.9811 1.56889,-0.2442 3.16016,-0.28908 4.74492,-0.32365 1.66874,-0.11226 3.3107,0.0735 4.94533,0.3914 1.3829,0.30494 2.73939,0.72943 4.03615,1.2984 0.70725,0.318 1.30253,0.80259 1.92608,1.24963 0.46614,0.39141 0.96008,0.73547 1.40724,1.15021 0.47699,0.34612 0.89643,0.75705 1.33481,1.14843 0.45987,0.38317 0.92683,0.76783 1.41607,1.11418 0.47967,0.2342 0.88326,0.58692 1.32929,0.86973 0.93698,0.26264 1.88777,0.47924 2.82287,0.75584 1.51198,0.4806 3.0614,0.82226 4.5836,1.26752 0.68167,0.14505 1.44865,0.49764 2.16684,0.37202 0.12828,-0.0224 0.54121,-0.20953 0.6607,-0.26131 1.42298,-0.83712 -0.88069,0.51988 -2.7219,1.54722 -0.10132,0.0565 0.19343,-0.12837 0.28664,-0.19744 0.27513,-0.20386 0.53415,-0.43186 0.80253,-0.64455 2.72413,-2.13785 3.4098,-2.46982 6.13464,-2.414 2.05337,0.13679 4.0976,0.40762 6.12762,0.74201 1.51585,0.25144 3.04567,0.45117 4.58426,0.42502 0.54751,-0.0302 1.07448,0.001 1.58265,-0.233 0.13359,-0.0616 0.5119,-0.29006 0.3835,-0.21829 -3.05969,1.71031 -3.77839,2.40042 -2.6064,1.34722 0.88806,-1.01281 1.69726,-2.09109 2.56354,-3.12303 1.71813,-1.96642 3.53074,-3.84792 5.24989,-5.81332 0.60803,-0.72703 1.22374,-1.44835 1.81895,-2.18605 0.31933,-0.39576 0.45499,-0.62708 0.84202,-0.9634 0.17103,-0.14862 0.36453,-0.26921 0.5468,-0.40381 1.33846,-0.7328 2.65529,-1.5066 4.0154,-2.19841 0.27014,-0.1374 0.57366,-0.19624 0.86392,-0.28342 0.99407,-0.29857 2.00716,-0.50803 3.03026,-0.6754 0.67081,-0.0859 0.34792,-0.0506 0.96836,-0.10839 0,0 -3.09454,2.29454 -3.09454,2.29454 v 0 c -0.5946,0.0606 -0.28507,0.0245 -0.92831,0.11075 -0.70143,0.11816 -1.39619,0.25076 -2.08337,0.43788 -1.32498,0.36079 -4.33441,1.78339 0.77755,-0.96767 -0.4627,0.28074 -0.66254,0.35852 -1.03564,0.75171 -0.15368,0.16195 -0.27359,0.35297 -0.41554,0.5253 -0.61884,0.75131 -1.26978,1.47639 -1.89184,2.22501 -1.70329,1.95636 -3.51229,3.81864 -5.20464,5.78514 -0.84621,1.02085 -1.64245,2.07916 -2.46893,3.11554 -1.21715,1.41245 -0.31188,0.43841 -3.96018,2.529 -0.24261,0.13902 -0.63136,0.22268 -0.90111,0.25373 -0.19168,0.0221 -0.97046,0.0341 -1.13522,0.0377 -1.5406,-0.0295 -3.06919,-0.22592 -4.5847,-0.5005 -2.01865,-0.3356 -4.05276,-0.63615 -6.10172,-0.68161 -0.65348,0.0212 -1.3321,0.009 -1.96216,0.21836 -0.10615,0.0352 -0.40034,0.19873 -0.30431,0.14138 4.09616,-2.44622 3.95452,-2.36065 2.78203,-1.60945 -1.54513,1.21974 -3.07749,2.48715 -5.00895,3.11259 -1.03768,0.29411 -1.90453,-0.0498 -2.90862,-0.34794 -1.52674,-0.44377 -3.077,-0.79865 -4.60068,-1.25358 -0.9813,-0.27161 -2.00982,-0.41802 -2.94653,-0.8175 -0.43671,-0.30622 -0.87442,-0.60885 -1.33003,-0.88774 -0.49049,-0.36763 -0.98111,-0.73917 -1.4413,-1.14407 -0.43824,-0.39295 -0.86462,-0.79646 -1.33419,-1.1531 -0.44275,-0.39658 -0.92746,-0.73571 -1.38209,-1.1179 -0.58787,-0.44314 -1.17707,-0.88348 -1.84795,-1.19815 -1.26772,-0.55078 -2.58176,-0.99016 -3.93982,-1.2593 -1.6234,-0.28926 -3.25484,-0.42391 -4.90513,-0.32268 -1.58061,0.046 -3.16523,0.10648 -4.72706,0.37432 -1.34994,0.22449 -2.671617,0.53204 -3.949854,1.0331 -1.481418,0.49935 -2.95733,1.01703 -4.470246,1.41637 -1.831174,0.51178 -3.660529,1.02844 -5.439458,1.70607 -1.582306,0.56946 -3.172222,1.20289 -4.848987,1.42209 -1.144114,0.0745 -2.255149,-0.0185 -3.337478,-0.42627 0,0 3.208944,-2.19766 3.208944,-2.19766 z"
       id="path10" />
    <path
       style="stroke-width:0.26458332"
       d="m 142.56072,130.44451 c 1.2707,0.4122 2.59157,0.63804 3.9049,0.86686 1.28711,0.20848 2.59017,0.27218 3.89167,0.30341 0.82696,-0.0265 1.6353,0.0104 2.44441,0.18364 1.17172,0.32459 2.31487,0.74375 3.45682,1.15894 1.00756,0.34918 2.01324,0.84273 3.09309,0.89802 0.10474,-0.0191 0.21015,-0.0349 0.31423,-0.0574 0.24424,-0.0527 0.34481,-0.0775 0.56617,-0.19279 0.0893,-0.0465 0.34555,-0.20649 0.25801,-0.15684 -3.03305,1.72027 -4.04322,2.39195 -2.75286,1.54528 0.53581,-0.38999 1.03825,-0.82303 1.54675,-1.24732 1.24873,-0.99294 2.65736,-1.62371 4.07944,-2.43698 0.0848,-0.0485 0.34478,-0.18372 0.26018,-0.13487 -3.27246,1.89001 -4.04725,2.45678 -2.89445,1.62864 0.56896,-0.47075 0.85275,-1.01282 1.13531,-1.68391 0.37797,-1.06243 0.86164,-2.07974 1.31016,-3.11282 0.34589,-0.83187 0.83081,-1.58698 1.36571,-2.30739 0.59209,-0.73093 1.23771,-1.40584 1.98683,-1.97519 0.55654,-0.36818 1.04551,-0.82333 1.56515,-1.2383 0,0 3.6177,-1.4185 3.6177,-1.4185 v 0 c -0.58971,0.33384 -1.01915,0.89156 -1.60434,1.23908 -0.1269,0.0889 -0.63607,0.44124 -0.7513,0.53922 -0.46915,0.3989 -0.84203,0.89393 -1.26637,1.33601 -0.57003,0.67408 -1.05478,1.42407 -1.42165,2.22807 -0.29549,0.63436 -0.15242,0.30506 -0.42643,0.98912 -0.31194,0.6967 -0.68325,1.36716 -0.88895,2.10889 -0.15142,0.39558 -0.27235,0.85625 -0.49328,1.22149 -0.14243,0.23545 -0.39275,0.36636 -0.53277,0.60323 -1.07976,1.22653 -0.12362,0.18291 -3.72509,2.27041 -0.0844,0.0489 -0.34275,0.18629 -0.25867,0.13683 5.49484,-3.23219 3.62224,-2.22424 2.53861,-1.43149 -0.53718,0.39323 -1.02126,0.85977 -1.5426,1.27364 -1.38768,0.97562 -0.56239,0.40779 -3.87425,2.28681 -0.37663,0.21368 -0.8436,0.23586 -1.26287,0.22245 -1.07375,-0.18692 -2.07446,-0.63641 -3.09454,-1.0047 -1.13954,-0.40431 -2.28227,-0.81771 -3.4652,-1.07772 -0.79384,-0.12261 -1.58927,-0.14303 -2.39198,-0.15002 -1.30401,-0.0528 -2.60791,-0.14741 -3.8957,-0.36803 -1.3424,-0.24454 -2.6874,-0.492 -4.00024,-0.86894 0,0 3.2084,-2.17687 3.2084,-2.17687 z"
       id="path12" />
    <path
       style="stroke-width:0.26458332"
       d="m 153.46856,132.0096 c 0.65495,-0.56213 1.32036,-1.112 1.97672,-1.67236 0.48168,-0.45965 0.97163,-0.91152 1.51583,-1.29629 0.4988,-0.35133 0.9964,-0.70984 1.4577,-1.10992 0.4304,-0.33919 0.78865,-0.75509 1.18376,-1.13287 0.72665,-0.53952 1.44202,-1.07905 2.10409,-1.69787 0.58285,-0.57233 1.08716,-1.20713 1.49342,-1.91457 0.46489,-0.67695 0.74176,-1.44676 1.05951,-2.19685 0.28612,-0.73037 0.7457,-1.35281 1.23778,-1.95353 0,0 3.56473,-1.51339 3.56473,-1.51339 v 0 c -0.49516,0.57751 -1.00367,1.14546 -1.30152,1.8579 -0.32562,0.75302 -0.55807,1.55961 -1.03946,2.23257 -0.13486,0.2472 -0.25312,0.50411 -0.40345,0.74223 -0.29553,0.4681 -0.70911,0.85426 -1.05463,1.2829 -0.64685,0.62628 -1.31253,1.2159 -2.06594,1.71154 -0.45057,0.31626 -0.75966,0.77593 -1.17923,1.12918 -0.48265,0.3866 -0.94812,0.79213 -1.45077,1.15604 -0.5707,0.34119 -1.07783,0.77475 -1.54678,1.24533 -0.62511,0.58478 -1.33325,1.07639 -1.94784,1.6753 0,0 -3.60392,1.45466 -3.60392,1.45466 z"
       id="path14" />
    <path
       style="stroke-width:0.26458332"
       d="m 159.70844,130.92561 c 0.93574,-0.3725 1.80308,-0.88512 2.68907,-1.35778 -5.55102,3.35251 -2.65281,1.61441 -1.51674,0.59562 0.57615,-0.4684 0.99665,-1.05387 1.3619,-1.69285 0.60167,-1.06211 0.83967,-2.26789 1.12523,-3.44105 0.25093,-0.97367 0.44464,-1.95874 0.64845,-2.94258 0.12756,-0.59831 0.27828,-1.19856 0.64055,-1.69971 0.30598,-0.44827 0.7521,-0.73925 1.20267,-1.02281 1.12235,0.0361 2.79305,-1.77906 4.20397,-2.361 0.29893,-0.12329 0.57859,-0.1816 0.86195,-0.34107 -5.52269,3.39064 -2.90183,1.77267 -1.69623,0.63295 0.54973,-0.51378 1.17396,-0.94517 1.82059,-1.32733 0.43209,-0.257 0.22475,-0.1258 0.62301,-0.39202 0,0 3.59443,-1.42529 3.59443,-1.42529 v 0 c -0.38486,0.30872 -0.18099,0.16366 -0.61324,0.4329 -0.64689,0.36841 -1.27711,0.76091 -1.85095,1.23934 -1.4723,1.44353 -2.8106,2.3497 -4.91028,3.25172 -1.44062,0.54711 -4.22033,2.13181 1.5805,-1.10626 -0.43802,0.25531 -0.90595,0.49771 -1.24285,0.8842 -0.0974,0.11886 -0.21621,0.22021 -0.3057,0.34516 -0.24904,0.34776 -0.30668,0.81838 -0.43259,1.21527 -0.24526,0.98258 -0.40232,1.98761 -0.67957,2.96351 -0.28816,1.18937 -0.51346,2.41809 -1.06584,3.51919 -0.3343,0.67787 -0.70423,1.30929 -1.27967,1.81319 -0.27016,0.22383 -0.50564,0.49037 -0.78178,0.70563 -1.30655,1.01845 -3.04345,1.54815 -4.28047,2.56166 -0.89876,0.48675 -1.80227,0.96514 -2.74639,1.35985 0,0 3.04998,-2.41044 3.04998,-2.41044 z"
       id="path16" />
    <path
       style="stroke-width:0.26458332"
       d="m 138.29836,132.41298 c 0.56338,0.70021 1.1665,1.36688 1.77935,2.02375 0.49736,0.55412 0.97201,1.12791 1.46417,1.68691 0.37623,0.5269 0.81714,0.99606 1.24269,1.48159 0.52808,0.54354 0.82899,1.24718 1.17183,1.91176 0.47434,0.9678 0.85372,1.97988 1.29136,2.96551 0.38712,0.68516 0.76251,1.36904 0.96575,2.13255 0.0661,0.27277 0.0887,0.55198 0.11084,0.83074 0,0 -3.44843,1.7854 -3.44843,1.7854 v 0 c -0.0129,-0.25864 -0.0251,-0.51789 -0.0744,-0.77291 -0.16724,-0.75111 -0.52798,-1.42118 -0.89159,-2.0947 -0.43742,-0.97633 -0.81192,-1.98175 -1.29348,-2.93638 -0.33743,-0.63364 -0.64362,-1.29822 -1.1519,-1.81759 -0.42426,-0.48509 -0.85114,-0.96606 -1.23111,-1.48774 -0.48831,-0.5567 -0.96514,-1.12354 -1.44669,-1.68598 -0.60555,-0.66011 -1.18857,-1.34081 -1.80555,-1.99014 0,0 3.31719,-2.03277 3.31719,-2.03277 z"
       id="path18" />
    <path
       style="stroke-width:0.26458332"
       d="m 76.511871,130.72687 c -0.790212,-0.98647 -1.812004,-1.76073 -2.804668,-2.53239 -0.921583,-0.64219 -1.833779,-1.29868 -2.709576,-2.003 -0.524108,-0.3942 -1.060514,-0.76758 -1.579243,-1.1692 -0.501848,-0.44728 -1.070993,-0.80881 -1.560663,-1.2693 -0.419081,-0.37067 -0.877311,-0.68113 -1.242195,-1.10881 -0.317905,-0.45542 -0.535379,-0.96808 -0.780764,-1.46354 -0.276654,-0.63576 -0.523129,-1.28278 -0.792073,-1.92213 -0.264427,-0.55462 -0.500261,-1.11284 -0.820737,-1.63735 -0.326014,-0.40283 -0.456462,-0.908 -0.71451,-1.34769 -0.243774,-0.45837 -0.557744,-0.87165 -0.857729,-1.29304 -0.382347,-0.43376 -0.836499,-0.79187 -1.248545,-1.19774 -0.674833,-0.5636 -1.496901,-0.90881 -2.315691,-1.20931 -1.038329,-0.28753 -2.087595,-0.53979 -3.141808,-0.76293 -0.417772,-0.0866 -0.81624,-0.31489 -1.245304,-0.35516 -0.09211,-0.009 -0.384712,0.0269 -0.474258,0.0364 -1.165045,0.6209 -2.713088,1.48147 2.741388,-1.56384 0.07156,-0.0399 -0.135406,0.0931 -0.196993,0.14714 -0.128908,0.1132 -0.271381,0.28666 -0.382246,0.41432 -0.574175,0.674 -0.928968,1.49065 -1.299533,2.28519 -0.365757,0.76377 -0.735084,1.5262 -1.24066,2.20801 -0.561788,0.63425 -1.06503,1.31462 -1.583876,1.98329 -0.772395,1.09025 -1.676704,2.06273 -2.696998,2.92178 -0.877178,0.73716 -1.819958,1.38904 -2.727941,2.08709 -1.123342,0.78908 -2.303442,1.49359 -3.451667,2.24671 -1.602515,0.97658 -0.461084,0.28639 -4.110413,2.36165 -0.04622,0.0263 -0.71755,0.39419 -0.764297,0.41662 -1.303729,0.62564 0.424548,-0.26061 -0.773703,0.3623 -0.692811,0.26708 -1.348647,0.62946 -2.050332,0.87013 -0.888053,0.3671 -1.872443,0.50129 -2.714792,0.96992 -1.503111,0.83734 1.84699,-1.07457 2.783411,-1.58877 0.09219,-0.0506 -0.167904,0.12707 -0.246435,0.19702 -0.221142,0.19699 -0.370994,0.41148 -0.515975,0.66629 -0.242506,0.52232 -0.250619,1.10278 -0.265171,1.66751 -0.0067,0.55722 0.0011,1.1145 0.0047,1.67172 0.04946,0.65416 0.26919,1.27896 0.415005,1.91537 0.225319,0.71871 0.371752,1.51908 0.914127,2.07425 0.05742,0.007 0.115483,0.0306 0.17227,0.0198 0.143669,-0.0273 0.502502,-0.29923 0.374645,-0.22825 -1.033809,0.57386 -2.053526,1.17287 -3.087722,1.74604 -0.09308,0.0516 0.178358,-0.11646 0.263237,-0.18067 0.09088,-0.0687 0.175686,-0.14517 0.26353,-0.21777 0.536051,-0.49637 1.070398,-0.99438 1.580576,-1.51749 0.452009,-0.50427 0.91417,-0.99066 1.414566,-1.44721 1.807834,-1.27374 3.79953,-2.3864 5.887016,-3.15318 0.962837,-0.35164 1.952897,-0.61988 2.971935,-0.7353 0.89876,-0.0574 1.799934,-0.0544 2.700112,-0.0568 0.645734,-0.0319 1.238999,-0.24479 1.775222,-0.59962 -5.481137,3.68671 -3.217352,1.85908 -2.026629,0.91951 0.408459,-0.2359 0.67087,-0.63249 0.990079,-0.96745 0.388138,-0.41532 0.741029,-0.8618 1.12281,-1.28237 0.510754,-0.63812 0.747897,-1.45837 1.020923,-2.21888 0.315844,-1.28296 2.623685,-5.61565 4.121709,-2.68052 0.14107,0.49107 0.110474,1.01112 0.105828,1.51688 0.01532,0.63361 -0.133377,1.24922 -0.329486,1.84654 -0.232257,0.62993 -0.622287,1.17426 -0.992082,1.72759 -0.32299,0.54144 -0.728461,1.02373 -1.06713,1.55436 -0.283933,0.43528 -0.634013,0.81179 -0.992304,1.18483 -0.394301,0.42311 -0.785813,0.84895 -1.182952,1.26936 -0.427268,0.45393 -0.887318,0.874 -1.383729,1.25081 -0.527531,0.43454 -1.098166,0.80482 -1.667626,1.18033 -2.159566,1.33061 -7.359811,4.21659 -0.841158,0.50771 0.08263,-0.047 -0.161491,0.1004 -0.240903,0.15268 -0.154509,0.1017 -0.306163,0.20769 -0.460428,0.30976 -2.172306,1.29852 -7.210004,4.09798 -0.719315,0.41855 0.08519,-0.0483 -0.166706,0.10281 -0.249849,0.15455 -0.212958,0.13252 -0.298468,0.18707 -0.510037,0.32077 -1.78862,1.1945 -3.626096,2.33877 -5.640708,3.10746 -0.37107,0.1542 -0.76029,0.30612 -1.117441,0.49248 -0.155675,0.0812 -0.607499,0.35247 -0.454461,0.26637 5.234807,-2.94489 3.340602,-2.21125 2.480016,-1.23555 -0.203004,0.31865 -0.03737,0.64948 0.243459,0.85037 0.399261,0.18711 0.849217,0.12738 1.267582,0.23067 0.426198,0.0953 0.878027,0.22595 1.31269,0.13291 1.131134,-0.83814 0.05222,-0.0294 -3.036506,1.68927 -0.07535,0.0419 0.144372,-0.0945 0.21391,-0.14545 0.09304,-0.0682 0.185179,-0.13784 0.273577,-0.21197 0.174233,-0.14609 0.398512,-0.36768 0.559728,-0.52275 0.571857,-0.4974 1.154343,-0.98816 1.775622,-1.42318 0.521168,-0.35476 1.020569,-0.74124 1.477592,-1.1756 0.385273,-0.41135 0.757224,-0.82035 1.191508,-1.18072 0.410163,-0.3226 0.765662,-0.70067 1.137404,-1.06473 0.481531,-0.47845 1.026983,-0.8823 1.529808,-1.33826 1.368242,-1.34277 3.073074,-2.33561 4.873038,-3.00501 0.853924,-0.30898 1.730049,-0.57154 2.610887,-0.79546 1.078798,-0.18291 2.183952,-0.15358 3.275163,-0.16837 1.016344,-0.0193 2.041004,0.0588 3.024611,0.32101 0.761389,0.3195 1.545494,0.60154 2.275649,0.98993 0.692531,0.35385 1.366851,0.73777 2.045666,1.11673 0.657045,0.33212 1.245367,0.75387 1.831417,1.19491 1.194802,0.87768 2.300401,1.87117 3.413797,2.84846 1.220935,1.07032 2.519817,2.04208 3.760226,3.08887 0.556226,0.44702 0.865447,0.99709 0.972368,1.69172 0.06841,0.58043 0.06734,1.14364 -0.128879,1.6967 -0.194051,0.51504 -0.584144,0.91056 -0.959739,1.29923 -0.378653,0.48608 -0.806116,0.92969 -1.204261,1.39927 -0.515533,0.60425 -1.040675,1.19858 -1.528477,1.82577 -0.748504,1.00666 -1.335323,2.12321 -1.938811,3.22007 -0.431985,0.8168 -0.967703,1.57166 -1.432158,2.36848 -0.364808,0.6793 -0.706088,1.36959 -1.033367,2.0676 -0.455092,0.94198 -0.565769,1.97506 -0.640176,3.00385 -0.03399,1.17328 -0.06933,2.34309 -0.159871,3.51366 -0.06843,0.79608 -0.109988,1.59386 -0.127138,2.3926 -0.0089,0.725 -0.0081,1.45006 -0.0046,2.17509 0.04018,0.60935 0.284123,1.18325 0.452578,1.76566 0.03009,0.11963 0.05976,0.23938 0.09028,0.35891 0.06412,0.25113 0.125942,0.50289 0.194466,0.75286 0.06879,0.25095 0.122775,0.53398 0.162754,0.39018 -4.487498,2.39342 -3.40749,2.81115 -3.305964,1.17429 0.02072,-0.33389 0.01691,-0.66974 0.01953,-1.00406 0.05255,-0.7943 0.233712,-1.57881 0.406078,-2.35519 0.209669,-0.66884 0.462743,-1.33665 0.798859,-1.95341 0.284967,-0.47811 0.660961,-0.88455 1.026221,-1.29992 0.429545,-0.41831 0.773382,-0.90704 1.102032,-1.40516 0.282003,-0.47428 0.669046,-0.86913 0.970965,-1.32822 0.460978,-0.79246 0.809453,-1.63971 1.164719,-2.48254 0.302006,-0.86409 0.767059,-1.651 1.175885,-2.46511 0.402294,-1.02004 0.680797,-2.08665 1.016699,-3.1311 0.422291,-1.29575 0.823799,-2.59878 1.223581,-3.90177 0.293693,-0.89476 0.402088,-1.82965 0.572778,-2.75107 0.132099,-0.65878 0.182671,-1.32902 0.208622,-1.99915 0.02996,-0.64887 -0.01828,-1.29855 0.0699,-1.94341 0.09442,-0.48971 0.134474,-0.98661 0.238053,-1.47441 0.436944,-1.58754 1.571858,-1.44399 3.665493,-2.53085 0.14797,-0.0768 0.946298,0.44971 1.057121,0.52153 0.896091,0.58824 1.631453,1.39994 2.321925,2.21301 0.497819,0.60186 0.988145,1.20746 1.420469,1.85849 0.416515,0.64319 0.714735,1.35214 1.002173,2.0597 0.361079,0.88511 0.613584,1.80595 0.849749,2.73055 0.243422,1.12205 0.548865,2.22683 0.732462,3.36122 0.124714,0.99918 0.261149,1.99888 0.42591,2.99248 0.13508,0.73167 0.236307,1.46809 0.292597,2.20989 0.04219,0.85576 0.02233,1.71319 0.01601,2.5696 -0.01397,1.03784 0.006,2.07568 0.0087,3.1135 -5.29e-4,0.84459 -0.0019,1.68915 -0.0013,2.53372 0.01159,0.81385 -0.0016,1.62762 -0.003,2.44146 0.04352,0.77266 -0.114324,1.59376 0.118417,2.34676 -0.456414,-1.37565 0.0722,0.0362 -3.397094,1.62834 -0.08585,0.0394 0.03397,-0.186 0.04425,-0.2799 0.0519,-0.47391 0.05267,-0.95574 0.06596,-1.43158 0.0182,-1.01423 0.0291,-2.02694 -0.06293,-3.03765 -0.05902,-1.13884 -0.246018,-2.25989 -0.454652,-3.37921 -0.232611,-1.26458 -0.480957,-2.52627 -0.798105,-3.77259 -0.281705,-0.90863 -0.54955,-1.82158 -0.690504,-2.7636 -0.101174,-0.97803 -0.08232,-1.96397 -0.09113,-2.94602 -0.0068,-0.71647 -0.01032,-1.43295 -0.01183,-2.14945 -0.0396,-0.54771 0.05941,-1.08286 0.144539,-1.62053 0.03125,-0.67212 0.226885,-1.288 0.477689,-1.90627 0.317201,-0.90514 0.651156,-1.80224 1.028642,-2.68406 0.267422,-0.64923 0.335944,-1.35216 0.547669,-2.01839 1.995382,-4.20854 3.542107,-2.43177 5.018034,-0.91915 1.233853,1.36501 2.58744,2.61057 3.912505,3.88512 1.237036,1.16759 2.577669,2.21744 3.935127,3.23977 0.445609,0.24356 0.8094,0.68741 1.32371,0.80185 0.285303,0.0635 0.614032,0.0222 0.896647,0.007 1.974592,-0.22159 3.874772,-0.83341 5.780582,-1.36551 3.45873,-0.97308 6.98042,-1.69683 10.46791,-2.55811 3.79335,-0.93234 7.51623,-2.13992 11.18685,-3.47135 1.34643,-0.39166 2.58941,-1.07891 3.9251,-1.49349 0.62002,-0.0816 1.07584,0.12488 1.42273,0.63428 0.35028,0.83917 -0.34649,1.49153 -0.8826,2.05124 -1.62833,1.4895 -3.61372,2.56513 -5.616,3.47002 -0.32666,0.1733 -0.69118,0.24582 -1.03118,0.38314 -0.15257,0.0616 -0.58884,0.29309 -0.44624,0.21101 4.86822,-2.80208 3.23322,-2.05564 2.24099,-1.01204 -0.45668,0.5429 -0.81565,1.15307 -1.18516,1.75537 -0.34758,0.58893 -0.63075,1.21489 -0.89514,1.8449 -0.19167,0.64566 -0.31789,1.31406 -0.42988,1.97866 -0.11184,0.72808 -0.11714,1.46686 -0.13007,2.20176 0.0189,1.19127 0.36369,2.34117 0.73774,3.46185 0.32735,1.07054 0.76704,1.98194 1.29778,2.95418 0.23916,0.59504 0.63666,1.10082 0.89067,1.68694 0.22759,0.5062 0.52494,0.97532 0.78158,1.4678 0.40798,0.63162 0.59359,1.07925 0.57324,1.84043 -0.22008,1.22599 -0.5706,2.42821 -0.92535,3.6216 -0.34672,0.96986 -0.64884,1.97775 -1.13801,2.88874 -0.90867,1.25256 -2.72887,1.78377 -3.94893,2.40312 -0.0962,0.0488 -0.83613,-0.0709 -0.96977,-0.0854 -0.90669,-0.17348 -1.79704,-0.40122 -2.71178,-0.53226 -0.74337,-0.10022 -1.49305,-0.12888 -2.2422,-0.13807 -1.25395,0.2243 -3.48849,1.8829 2.65969,-1.61768 0.0305,-0.0174 -0.0726,0.009 -0.10109,0.0296 -0.0395,0.0285 0.0514,0.0854 0.0901,0.11497 0.56633,0.2141 1.17903,0.22321 1.77634,0.24499 0.76729,0.0194 1.53485,0.008 2.30227,0.0107 1.01561,0.035 1.6649,0.0649 2.58282,-0.4121 -5.72146,3.08921 -3.23223,2.06206 -2.22974,1.1149 0.2439,-0.23045 0.28423,-0.30012 0.50253,-0.57009 0.39679,-0.574 0.81427,-1.13312 1.21662,-1.70289 0.31547,-0.49189 0.68462,-0.94532 1.03474,-1.4131 0.48951,-0.57349 1.02414,-1.10862 1.57585,-1.62209 0.57901,-0.41612 0.85207,-0.61744 1.16473,-1.26825 0.4202,-1.00742 0.81158,-2.02665 1.2082,-3.04354 0.39975,-0.94345 0.8334,-1.87188 1.36363,-2.74931 0.45381,-0.64233 0.91509,-1.27013 1.18586,-2.01356 0.22628,-0.73559 0.47213,-1.46562 0.68004,-2.20666 0.2215,-0.71427 0.3972,-1.43915 0.49467,-2.1806 0.0705,-0.65105 0.0713,-1.3072 0.0721,-1.96129 -0.0109,-0.58717 0.0145,-1.1757 -0.0278,-1.7617 -0.0467,-0.61351 -0.23894,-1.19873 -0.35225,-1.80012 -0.15086,-0.82894 -0.41955,-1.62633 -0.70464,-2.41674 -0.33273,-0.8049 -0.53343,-1.62734 -0.63615,-2.48998 -0.0355,-0.96356 -0.16136,-1.91812 -0.26547,-2.87558 -0.0476,-0.49576 -0.0263,-0.2527 -0.0645,-0.72915 0,0 3.4342,-1.77996 3.4342,-1.77996 v 0 c 0.0278,0.47245 0.0116,0.23125 0.0491,0.72358 0.0893,0.9587 0.21419,1.91341 0.25064,2.87639 0.0961,0.83425 0.29284,1.6273 0.60158,2.40969 0.28616,0.80956 0.57283,1.61934 0.7543,2.4605 0.10985,0.61209 0.30879,1.20412 0.36803,1.82552 0.0807,0.59648 0.0299,1.19997 0.0426,1.80077 -0.002,0.66739 0.003,1.33561 -0.0484,2.00155 -0.0877,0.76169 -0.25392,1.50827 -0.48827,2.23886 -0.19606,0.74512 -0.43327,1.47925 -0.66204,2.21393 -0.21161,0.79659 -0.6512,1.47294 -1.16279,2.11394 -0.56154,0.84888 -0.99069,1.76245 -1.40488,2.6906 -0.41208,1.00595 -0.79934,2.02187 -1.17476,3.04215 -0.26004,0.65186 -0.42835,1.09025 -1.09553,1.4244 -0.57858,0.469 -1.0803,1.026 -1.59877,1.55917 -0.2143,0.24203 -0.34789,0.50711 -0.54241,0.75928 -0.16055,0.20815 -0.40249,0.35159 -0.49922,0.61079 -0.36026,0.60815 -0.86023,1.12589 -1.23016,1.73059 -1.09837,1.70638 -3.1329,2.40883 -4.83618,3.38407 -0.9021,0.3347 -1.72834,0.29481 -2.67734,0.28335 -0.7729,0.007 -1.54607,0.006 -2.31857,-0.0228 -0.67751,-0.0397 -1.39296,-0.0627 -1.96575,-0.47101 -1.39682,-1.64392 2.15763,-2.81198 3.81746,-2.82736 0.75068,0.0258 1.50046,0.0807 2.24295,0.19857 0.91073,0.14861 1.80296,0.38862 2.7204,0.49423 0.19661,0.0119 0.43524,0.0364 0.63333,0.01 0.084,-0.0114 0.31828,-0.10899 0.24606,-0.0646 -5.3698,3.30323 -3.75876,2.28375 -2.65515,1.54561 0.59255,-0.78968 0.86385,-1.91729 1.24491,-2.82034 0.34385,-1.16157 0.66425,-2.33074 0.9099,-3.51722 0.0746,-0.7253 -0.10971,-1.04158 -0.488,-1.64739 -0.26376,-0.50133 -0.56473,-0.9806 -0.80319,-1.49392 -0.23343,-0.581 -0.62783,-1.07877 -0.84664,-1.6686 -0.52933,-0.99797 -0.94852,-1.94887 -1.29075,-3.03277 -0.38963,-1.15317 -0.76462,-2.33235 -0.83302,-3.55582 5.3e-4,-0.74788 -0.006,-1.49983 0.0831,-2.24342 0.1065,-0.68964 0.27567,-1.36642 0.39242,-2.05404 0.24585,-0.65698 0.57123,-1.28028 0.8706,-1.91361 0.39624,-0.60505 0.73288,-1.24591 1.17714,-1.81975 0.0881,-0.10586 0.50552,-0.62335 0.61811,-0.69374 1.97371,-1.23404 3.22967,-2.03643 5.16227,-2.76994 1.45034,-0.73298 0.92406,-0.47991 -2.33272,1.4009 -0.12898,0.0745 0.25482,-0.15438 0.37948,-0.23589 0.35856,-0.23443 0.69159,-0.50219 1.02145,-0.77484 0.37675,-0.36649 1.18831,-0.96859 1.08359,-1.55071 -0.2761,-0.38082 -0.70597,-0.36422 -1.12723,-0.23396 -1.25729,0.44666 -2.48478,0.97732 -3.76041,1.37467 -3.66179,1.26258 -7.35277,2.45743 -11.11828,3.37421 -3.52413,0.87858 -7.08012,1.63557 -10.56862,2.65049 -1.955058,0.56321 -3.917476,1.20316 -5.955971,1.37134 -0.189645,-0.006 -0.380598,0.006 -0.568939,-0.0166 -0.717489,-0.0873 -1.232551,-0.60318 -1.789544,-1.00936 -1.326155,-1.06686 -2.638626,-2.15464 -3.884027,-3.31529 -1.347473,-1.26222 -2.694133,-2.52388 -3.974899,-3.85408 -0.228764,-0.21479 -0.593056,-0.5716 -0.857999,-0.77212 -0.08265,-0.0626 -0.16537,-0.13236 -0.263948,-0.16437 -0.04425,-0.0144 -0.174776,0.0592 -0.135176,0.0348 4.510815,-2.78189 4.135408,-2.53881 3.014104,-1.80431 -0.320291,0.63751 -0.327295,1.37055 -0.565771,2.03791 -0.384615,0.8781 -0.778757,1.75166 -1.039437,2.6774 -0.234519,0.59217 -0.488278,1.16189 -0.488458,1.81219 -0.07517,0.52363 -0.213738,1.03841 -0.174406,1.57165 -0.0053,0.72144 -0.01545,1.44283 -0.02162,2.16426 -0.0038,0.96395 -0.0059,1.93039 0.0837,2.89107 0.119436,0.93455 0.352592,1.84548 0.643374,2.74134 0.31338,1.25562 0.54674,2.52948 0.792668,3.79958 0.225734,1.12287 0.438108,2.24907 0.504629,3.39464 0.101814,1.02671 0.08249,2.05238 0.06555,3.08361 -5.3e-4,0.47817 -0.0031,0.95591 -0.01167,1.43399 -0.0019,0.10278 0.07869,0.24872 -0.0051,0.30833 -3.326112,2.36771 -2.644637,3.20164 -3.539511,1.93114 -0.176308,-0.80788 -0.100531,-1.63631 -0.118864,-2.45643 -0.0013,-0.81282 -0.01469,-1.62556 -0.003,-2.4384 5.3e-4,-0.84444 -5.29e-4,-1.68888 -2.9e-5,-2.53334 0.0043,-1.04145 0.02673,-2.08289 0.01349,-3.12438 -0.0068,-0.84255 -0.01109,-1.6854 -0.04375,-2.52743 -0.03925,-0.73256 -0.117684,-1.46216 -0.256752,-2.1831 -0.174958,-0.99613 -0.262824,-2.00846 -0.402545,-3.00999 -0.175045,-1.12539 -0.483145,-2.21599 -0.71747,-3.32921 -0.230736,-0.90666 -0.503248,-1.79825 -0.856163,-2.66544 -0.283011,-0.68095 -0.545105,-1.37922 -0.962644,-1.99226 -0.431731,-0.63349 -0.899864,-1.23799 -1.382713,-1.83336 -0.654661,-0.79004 -1.366091,-1.57174 -2.256602,-2.09762 -0.209325,-0.10796 -0.425606,-0.25765 -0.674682,-0.264 -0.0724,-0.002 -0.27051,0.0969 -0.209373,0.0581 6.25429,-3.97211 3.441846,-2.70666 2.89083,-1.56815 -0.111699,0.48272 -0.163719,0.96782 -0.247388,1.45633 -0.126042,0.62972 -0.101243,1.26241 -0.104286,1.90328 -0.01979,0.6891 -0.05893,1.37794 -0.18669,2.05705 -0.193005,0.93885 -0.304125,1.8945 -0.602863,2.80956 -0.396846,1.3041 -0.809567,2.60429 -1.21901,3.90412 -0.329512,1.05312 -0.63024,2.11508 -0.959617,3.16718 -0.39393,0.82626 -0.891781,1.59527 -1.208342,2.4574 -0.359002,0.83834 -0.664805,1.69946 -1.096901,2.50467 -0.260654,0.5058 -0.65472,0.88343 -0.955736,1.36064 -0.367379,0.4776 -0.643213,1.02535 -1.073478,1.45709 -0.396952,0.36897 -0.738114,0.7949 -1.066911,1.22447 -0.388697,0.56075 -0.610749,1.21893 -0.860071,1.84976 -0.201792,0.74182 -0.341151,1.51137 -0.446241,2.27091 0.0199,2.59603 0.273005,1.50983 -3.486549,3.65356 -0.336121,-0.48862 -0.301175,-1.17429 -0.513948,-1.7171 -0.1831,-0.61521 -0.442214,-1.21846 -0.508116,-1.86091 0.0027,-0.7294 0.0013,-1.45884 0.01378,-2.18816 0.01291,-0.80933 0.03301,-1.6187 0.130019,-2.42339 0.113086,-1.16948 0.173085,-2.3383 0.179271,-3.51364 0.05961,-1.0597 0.12635,-2.13097 0.553038,-3.11931 0.321138,-0.70295 0.650467,-1.39997 1.006636,-2.08568 0.436232,-0.83174 1.038397,-1.56651 1.488353,-2.3923 0.599509,-1.09743 1.180343,-2.21233 1.876017,-3.25202 0.466167,-0.64374 0.983017,-1.24316 1.508361,-1.83888 0.390694,-0.4755 0.824185,-0.91332 1.185603,-1.40998 0.33565,-0.3894 0.751705,-0.71912 1.011849,-1.16626 0.06192,-0.14429 0.142322,-0.28139 0.190349,-0.43089 0.112487,-0.35012 0.02524,-0.73382 0.02987,-1.09242 -0.06652,-0.61089 -0.317645,-1.07047 -0.796721,-1.47322 -1.192157,-1.08935 -2.469769,-2.0721 -3.690765,-3.12883 -1.128178,-0.96203 -2.262355,-1.92504 -3.481253,-2.7714 -0.582181,-0.42188 -1.182047,-0.80768 -1.813989,-1.15189 -0.668911,-0.38876 -1.352981,-0.74473 -2.039342,-1.10159 -0.713639,-0.35586 -1.456116,-0.66754 -2.210736,-0.92331 -0.964168,-0.21149 -1.955358,-0.28098 -2.941611,-0.26088 -1.087237,0.0165 -2.193277,0.009 -3.255362,0.27068 -0.869312,0.23936 -1.744197,0.47867 -2.573626,0.83614 -1.391153,0.66498 -0.742159,0.36751 2.643092,-1.58894 0.08889,-0.0514 -0.169857,0.11537 -0.255471,0.17203 -0.248092,0.16418 -0.446508,0.34987 -0.642252,0.57618 -0.257633,0.20799 -0.477726,0.45088 -0.732758,0.66096 -0.434925,0.35828 -0.132517,0.0638 -0.561793,0.41437 -0.08629,0.0705 -0.164848,0.14991 -0.247271,0.22486 -0.344218,0.38864 -0.708512,0.77055 -1.121413,1.0867 -0.189378,0.19127 -0.404619,0.3209 -0.604036,0.49763 -0.234876,0.20817 -0.173768,0.2049 -0.384148,0.44948 -0.06744,0.0784 -0.143558,0.14889 -0.215339,0.22334 -0.451319,0.46233 -0.936652,0.87291 -1.461265,1.25099 -0.644266,0.39792 -1.20732,0.89922 -1.805982,1.36115 -1.330693,1.25285 -2.758091,2.81906 -4.712394,2.9679 -0.463441,-0.0257 -0.917347,-0.10927 -1.368866,-0.21525 -0.482923,-0.0606 -0.981763,-0.087 -1.383292,-0.39726 -0.381334,-0.36684 -0.598115,-0.82563 -0.497679,-1.36411 0.821137,-1.42342 2.863435,-2.01606 4.066627,-2.71909 0.501537,-0.29305 1.055643,-0.48431 1.587503,-0.71134 0.192865,-0.0798 0.387501,-0.15546 0.578593,-0.23942 0.167836,-0.0737 0.654442,-0.32899 0.497904,-0.23358 -5.254887,3.20287 -3.162422,1.9307 -2.056871,1.12026 0.261554,-0.14582 0.502436,-0.31704 0.761315,-0.46716 1.1895,-0.68977 2.372654,-1.39073 3.571097,-2.06484 1.037225,-0.58343 -2.059445,1.19314 -3.087391,1.79276 -0.0787,0.0459 0.159718,-0.0877 0.239577,-0.13157 1.376305,-0.95935 2.715316,-1.68369 4.26879,-2.54827 1.016503,-0.56573 -2.009997,1.17186 -3.016358,1.75544 -0.102518,0.0594 0.203197,-0.12201 0.304795,-0.18301 0.555064,-0.38854 1.153803,-0.7101 1.663501,-1.16123 0.499139,-0.36268 0.996995,-0.73576 1.405755,-1.20236 0.424445,-0.38475 0.766567,-0.84887 1.185789,-1.23887 0.318852,-0.39807 0.728403,-0.71272 1.008287,-1.14388 0.359884,-0.47813 -0.05626,0.0937 0.300842,-0.46567 0.242144,-0.37929 0.59508,-0.679 0.787064,-1.09286 0.363852,-0.53166 0.735716,-1.05915 1.020696,-1.63742 0.223909,-0.54676 0.384297,-1.12876 0.379556,-1.72374 0.0053,-0.45016 0.02511,-0.90496 -0.03869,-1.35185 -0.439338,-1.26658 -0.03598,-0.0413 3.324431,-1.93342 0.04257,-0.024 -0.09671,0.0306 -0.13136,0.065 -0.11711,0.11639 -0.251685,0.41605 -0.300374,0.54594 -0.05533,0.14761 -0.09321,0.30119 -0.139811,0.45178 -0.275561,0.79417 -0.535159,1.60383 -0.920887,2.35216 -0.399606,0.40145 -0.741442,0.84876 -1.121207,1.2693 -0.559382,0.66342 0.237644,-0.26394 -0.344879,0.35648 -0.212553,0.22638 -0.339696,0.5295 -0.607142,0.70238 -1.456941,0.79802 -2.834521,3.50518 -4.612267,2.93231 -0.60068,0.27586 -1.206288,0.45725 -1.877266,0.43088 -0.890482,-0.002 -1.784543,-0.007 -2.670193,0.0984 -0.991309,0.15396 -1.958862,0.4207 -2.893005,0.78867 -0.516797,0.20914 -1.027266,0.4267 -1.52591,0.67689 -0.136186,0.0683 -0.5354,0.29091 -0.404228,0.21339 2.468452,-1.45875 4.006054,-2.29388 2.648543,-1.55336 -0.534379,0.41916 -1.002096,0.89998 -1.441654,1.41632 -0.507455,0.53107 -1.03296,1.03601 -1.563388,1.54328 -1.25126,1.18408 -1.939854,1.34703 -4.07723,2.51051 -0.275087,0.14975 -0.59627,-0.0231 -0.809849,-0.18241 -0.539639,-0.64358 -0.746858,-1.46388 -0.983364,-2.25594 -0.163526,-0.65912 -0.407675,-1.29987 -0.486405,-1.97757 -0.0024,-0.56123 -0.0076,-1.12248 -0.0037,-1.68371 0.0096,-0.60802 0.004,-1.22899 0.190804,-1.81426 0.729625,-1.82147 2.892986,-2.43923 4.533768,-3.28929 0.890524,-0.35736 1.834993,-0.5689 2.72262,-0.93838 0.680831,-0.29267 1.360607,-0.58943 2.032323,-0.90214 0.387191,-0.18466 0.768204,-0.3741 1.145707,-0.57788 0.126105,-0.0681 0.50229,-0.27605 0.378767,-0.20339 -2.404177,1.41413 -3.954873,2.27222 -2.457085,1.43987 1.161727,-0.73628 2.315718,-1.48612 3.477024,-2.2218 0.905238,-0.70226 1.834155,-1.3701 2.733178,-2.07908 1.035981,-0.81153 1.973387,-1.73686 2.707526,-2.83652 0.529008,-0.6479 0.971259,-1.36487 1.554136,-1.96951 0.544602,-0.64399 0.945078,-1.3729 1.298631,-2.13764 0.384005,-0.80017 0.706712,-1.63723 1.229098,-2.36189 0.111847,-0.13848 0.392189,-0.57266 0.531648,-0.65805 0.803659,-0.49203 2.530792,-2.03212 4.010824,-2.14962 0.610275,0.0185 1.165688,0.25414 1.74711,0.42068 1.058743,0.25281 2.123977,0.48989 3.163205,0.81448 0.861756,0.3392 1.728372,0.70536 2.433851,1.32072 0.432586,0.41673 0.906148,0.79214 1.292453,1.25391 0.304014,0.43182 0.621551,0.85639 0.876252,1.32029 0.258723,0.43939 0.384318,0.94242 0.707711,1.34683 0.323212,0.54416 0.563012,1.11968 0.838866,1.68861 0.273545,0.62927 0.487156,1.28141 0.78672,1.89855 0.234545,0.46415 0.436253,0.94786 0.735415,1.37611 0.362937,0.40526 0.821169,0.70126 1.2114,1.07885 0.488214,0.44282 1.041318,0.80842 1.541066,1.23846 0.524491,0.39438 1.059116,0.77508 1.567714,1.19005 0.864071,0.70757 1.757839,1.37555 2.668027,2.0221 1.00354,0.79737 2.014661,1.59708 2.899695,2.52741 0,0 -3.317192,2.03278 -3.317192,2.03278 z"
       id="path20" />
    <path
       style="stroke-width:0.26458332"
       d="m 139.09487,140.73215 c 0.6959,0.408 1.29211,0.96542 1.81466,1.57516 0.51364,0.73807 1.00052,1.50218 1.43176,2.29209 0.58585,1.08652 1.20003,2.15545 1.87808,3.18712 0.94253,1.39987 1.81951,2.84076 2.76528,4.23873 0.82792,1.16043 1.55437,2.38849 2.37608,3.55276 0.49775,0.662 1.02399,1.30268 1.38512,2.05187 0.13227,0.32177 0.18831,0.66262 0.24281,1.00349 0,0 -3.4259,1.80742 -3.4259,1.80742 v 0 c -0.0384,-0.30634 -0.0761,-0.61337 -0.18658,-0.90443 -0.33229,-0.73993 -0.85774,-1.35539 -1.32441,-2.01309 -0.79274,-1.18397 -1.48086,-2.43528 -2.32382,-3.58647 -0.94818,-1.39803 -1.82679,-2.84056 -2.78464,-4.23182 -0.69107,-1.03441 -1.34348,-2.09321 -1.9331,-3.18916 -0.43172,-0.75875 -0.89725,-1.50326 -1.39822,-2.21759 -0.51869,-0.57833 -1.10106,-1.10417 -1.79289,-1.46864 0,0 3.27577,-2.09744 3.27577,-2.09744 z"
       id="path22" />
    <path
       style="stroke-width:0.26458332"
       d="m 140.37089,146.2416 c 0.31898,0.9975 0.72041,1.96365 1.10301,2.93759 0.32414,0.87448 0.59059,1.76053 0.96932,2.61379 0.32332,0.50183 0.56501,1.01675 0.66366,1.60585 0.0834,0.73301 0.0785,1.47262 0.0817,2.20934 0.0499,0.67007 -0.13908,1.30575 -0.34831,1.93279 -0.25338,0.60907 -0.63268,1.1571 -0.99095,1.70819 -0.37288,0.50338 -0.76637,0.98858 -1.10836,1.51416 -0.28193,0.44193 -0.36836,0.94586 -0.41437,1.4578 -0.0826,0.58286 0.20264,1.09077 0.40497,1.61728 0.25229,0.68766 0.6087,1.33409 0.96185,1.97453 0.38301,0.65109 0.72104,1.32809 0.83645,2.0794 0.0101,0.57218 -0.1678,1.11098 -0.40961,1.62122 -0.27322,0.59055 -0.66352,1.08931 -1.08902,1.57454 -1.31449,1.44963 -3.07231,2.13016 -4.79603,3.1157 -0.776,0.32727 -1.61457,0.41478 -2.44181,0.516 -1.50246,0.20337 -2.26812,1.1442 3.00122,-2.23806 0.0403,-0.0258 0.72146,0.003 0.80143,0.003 0.60862,0.0187 1.20374,-0.006 1.80392,-0.10215 0.7429,-0.18504 1.43603,-0.24994 2.07813,-0.69752 -4.32781,2.43717 -3.65502,2.3607 -2.64293,1.36634 0.48435,-0.47587 0.96549,-0.95354 1.45579,-1.42377 0.52752,-0.47915 1.03416,-0.96108 1.46795,-1.527 0.59579,-0.89468 1.10248,-1.84423 1.65712,-2.76419 0.47708,-0.81276 0.85076,-1.67913 1.33709,-2.48622 0.3503,-0.52237 0.77277,-0.99005 1.15984,-1.48548 0.39763,-0.64192 0.66004,-1.3531 0.98125,-2.03374 0.43599,-0.82566 0.79848,-1.68193 1.03947,-2.58409 0.16388,-0.66397 0.18219,-1.3494 0.19292,-2.02953 0,0 3.44932,-1.75212 3.44932,-1.75212 v 0 c -0.006,0.70736 -0.01,1.42137 -0.15997,2.11609 -0.22764,0.92392 -0.57435,1.80976 -1.01364,2.65438 -0.33025,0.68687 -0.60886,1.39371 -0.93608,2.08066 -0.32956,0.54345 -0.7908,0.98002 -1.18013,1.47887 -0.52899,0.78887 -0.91357,1.65599 -1.36537,2.48961 -0.55711,0.91535 -1.09254,1.84383 -1.61498,2.77932 -0.41889,0.61897 -0.87743,1.12274 -1.45765,1.59844 -0.36219,0.34828 -0.74975,0.67628 -1.10644,1.02886 -0.23391,0.23121 -0.39042,0.54879 -0.66648,0.72758 -1.17987,0.76417 -2.40019,1.46401 -3.60028,2.19601 -0.68849,0.31858 -1.43536,0.44383 -2.17666,0.58732 -0.61127,0.0728 -1.22482,0.0627 -1.83965,0.0622 -0.16417,-1.2e-4 -0.40859,5.3e-4 -0.57377,-0.003 -0.0852,-0.002 -0.32009,0.0473 -0.25555,-0.008 2.80584,-2.41924 1.75004,-2.20698 3.26782,-2.34506 0.81187,-0.0945 1.62487,-0.24228 2.35711,-0.62447 -6.43084,3.75233 -3.33643,2.08238 -2.43247,1.38862 0.23136,-0.17756 0.40582,-0.40497 0.63874,-0.58033 0.4203,-0.46643 0.86621,-0.89731 1.11529,-1.48582 0.26441,-0.43969 0.4432,-0.9061 0.51966,-1.41635 -0.0396,-0.71091 -0.39893,-1.34715 -0.74958,-1.95191 -0.36433,-0.65511 -0.72698,-1.31758 -0.998,-2.01734 -0.21553,-0.57303 -0.55489,-1.12758 -0.49415,-1.76121 0.0312,-0.55733 0.0873,-1.11806 0.34134,-1.6252 0.30964,-0.55307 0.69405,-1.05979 1.11371,-1.53422 0.35649,-0.52912 0.69625,-1.07124 1.01676,-1.62211 0.23567,-0.5749 0.44373,-1.18666 0.42022,-1.81451 8e-4,-0.71707 0.007,-1.43642 -0.0642,-2.15077 -0.0823,-0.55934 -0.31247,-1.0441 -0.60415,-1.52724 -0.36556,-0.86443 -0.63967,-1.75472 -0.95426,-2.63845 -0.3798,-0.97966 -0.76487,-1.95675 -1.14842,-2.93461 0,0 3.39618,-1.87043 3.39618,-1.87043 z"
       id="path24" />
    <path
       style="stroke-width:0.26458332"
       d="m 97.829427,130.85062 c -0.318315,0.90946 -0.462412,1.86431 -0.732031,2.78653 -0.157929,0.60014 -0.423489,1.16157 -0.625673,1.74564 -0.171106,0.62134 -0.291785,1.2521 -0.363778,1.89212 0.0098,0.28468 -0.252982,1.35734 0.196783,1.44278 1.086234,-0.83515 1.606257,-0.91011 -2.984388,1.6204 -0.06566,0.0362 0.126695,-0.0809 0.184541,-0.12861 0.123405,-0.10176 0.291595,-0.28659 0.398759,-0.39945 0.438158,-0.5103 0.91953,-0.97479 1.414399,-1.42855 0.360569,-0.37614 0.821481,-0.6183 1.172948,-1.00265 0.34703,-0.38565 0.721921,-0.74851 1.038225,-1.15992 0.352266,-0.47373 0.60121,-0.98258 0.729179,-1.55711 0.115527,-0.57931 0.0958,-1.12959 -0.07425,-1.69089 -0.190839,-0.47955 -0.521978,-0.86974 -0.805667,-1.29403 0,0 3.345296,-1.96373 3.345296,-1.96373 v 0 c 0.31061,0.45183 0.6632,0.87507 0.86112,1.39408 0.20148,0.63542 0.2684,1.18863 0.15784,1.8545 -0.082,0.62154 -0.27985,1.19775 -0.66867,1.69964 -0.25529,0.47171 -0.6422,0.82106 -0.99416,1.21898 -0.219767,0.22503 -0.114307,0.10248 -0.313466,0.37016 -0.248661,0.2751 -0.610775,0.3878 -0.867593,0.65288 -0.462822,0.4795 -1.011584,0.87197 -1.419659,1.40774 -1.101413,1.24047 -2.821924,3.2519 -4.471905,2.49316 -0.477261,-0.49961 -0.427392,-1.16284 -0.361257,-1.80987 0.06153,-0.65914 0.16919,-1.30623 0.312076,-1.95151 0.166224,-0.60877 0.48941,-1.15383 0.655069,-1.7644 0.313602,-0.89696 0.432636,-1.84224 0.713417,-2.74988 0,0 3.502845,-1.67801 3.502845,-1.67801 z"
       id="path26" />
    <path
       style="stroke-width:0.26458332"
       d="m 115.23832,133.83134 c 0.55267,1.17877 1.06654,2.37547 1.5655,3.57783 0.54082,1.20423 0.95728,2.45868 1.43384,3.689 0.33034,0.81917 0.70581,1.61485 1.14283,2.38185 0.21695,0.31828 0.39937,0.65605 0.58418,0.99305 0.76707,1.39875 1.67503,-0.54415 -3.23421,2.14933 -0.15471,-0.44754 -0.30765,-0.89628 -0.41914,-1.35703 -0.10561,-0.65946 -0.32262,-1.29219 -0.47756,-1.94044 -0.17784,-0.72513 -0.31906,-1.45688 -0.40313,-2.19871 -0.0668,-0.55942 -0.0958,-1.1001 0.0928,-1.63607 0.18435,-0.51181 0.40068,-1.00961 0.61732,-1.50804 0.14477,-0.47172 0.35385,-0.91077 0.60812,-1.33199 0.31719,-0.49792 0.38665,-1.06541 0.43374,-1.64021 0.007,-0.52468 0.13089,-1.17936 -0.3789,-1.49296 -0.0558,-0.008 -0.11139,-0.0315 -0.16737,-0.0247 -0.17441,0.0212 -0.40915,0.21158 -0.55557,0.29749 -0.0767,0.045 -0.30087,0.18946 -0.22355,0.14556 1.02627,-0.58273 2.04718,-1.17484 3.07076,-1.76226 -0.0901,0.0734 -0.18618,0.14002 -0.27033,0.22019 -0.29317,0.27933 -0.51299,0.67639 -0.86528,0.89165 -3.3571,2.05122 -2.44346,1.65246 -4.21141,2.36966 -0.83054,0.27961 -0.40295,0.13962 -1.28314,0.41878 0,0 3.0048,-2.33258 3.0048,-2.33258 v 0 c 0.88363,-0.30135 0.45666,-0.14448 1.28197,-0.46765 1.41191,-0.69182 1.09855,-0.55387 -2.36684,1.44255 -0.12611,0.0726 0.25052,-0.15072 0.36152,-0.24486 0.15504,-0.13149 0.38354,-0.43959 0.50715,-0.59519 0.0766,-0.0965 0.15393,-0.19236 0.2309,-0.28855 1.18665,-0.69683 2.36955,-1.40007 3.55994,-2.0905 0.21227,-0.12313 0.48993,-0.24923 0.74236,-0.23375 0.21559,0.0132 0.2892,0.0808 0.47161,0.18172 0.60332,0.53734 0.56116,1.06776 0.5439,1.83262 -0.025,0.61473 -0.0486,1.23557 -0.33781,1.79435 -0.23305,0.41632 -0.52636,0.80585 -0.63097,1.28156 -0.19078,0.50771 -0.46167,0.97923 -0.6153,1.50274 -0.0584,0.13375 -0.13647,0.25966 -0.18134,0.39854 -0.11149,0.34515 0.003,0.72667 -0.006,1.07897 0.0643,0.72899 0.18043,1.45181 0.3769,2.15789 0.14277,0.65082 0.37637,1.27643 0.48914,1.93293 0.0961,0.43252 0.24359,0.84767 0.39852,1.26165 -4.05074,2.51567 -2.69249,2.93201 -4.08956,0.72224 -0.45174,-0.78387 -0.81908,-1.60735 -1.14737,-2.45038 -0.45029,-1.23646 -0.87958,-2.48324 -1.40122,-3.69163 -0.49565,-1.18288 -0.98733,-2.37455 -1.61711,-3.49365 0,0 3.36541,-1.94102 3.36541,-1.94102 z"
       id="path28" />
    <path
       style="stroke-width:0.26458332"
       d="m 57.358978,114.64691 c 0.449786,0.63258 0.952124,1.22642 1.413528,1.85092 0.387467,0.46746 0.730301,0.95496 1.144212,1.39802 0.317286,0.23549 0.652415,0.45952 1.005613,0.64145 0.0548,0.01 0.10901,0.0235 0.164396,0.0287 0.256222,0.0242 0.666533,-0.26131 0.506611,-0.17164 -3.145526,1.76367 -4.147291,2.48087 -2.954383,1.63885 0.3776,-0.3214 0.623075,-0.7446 0.877168,-1.1612 0.358309,-0.43127 0.598099,-0.91251 0.734647,-1.45313 0.146037,-0.53241 -0.06567,-1.0036 -0.271851,-1.48495 -0.161055,-0.37308 -0.397857,-0.33066 -0.741447,-0.24526 -0.382143,0.095 -0.206814,0.039 -0.579869,0.19244 -1.792428,1.0086 4.217707,-2.47117 2.449626,-1.39272 -0.09489,0.0579 -0.188851,0.11725 -0.283276,0.17588 0,0 -3.606384,1.40551 -3.606384,1.40551 v 0 c 1.428469,-0.96358 2.890445,-1.94605 4.500567,-2.56163 0.656945,-0.15974 1.319512,-0.18481 1.642833,0.52605 0.232312,0.53995 0.500827,1.09245 0.384712,1.69615 -0.104802,0.57862 -0.283308,1.13317 -0.663747,1.59487 -0.167709,0.20009 -0.251106,0.40103 -0.380159,0.62435 -0.164399,0.28447 -0.10917,0.13946 -0.309509,0.39534 -0.05603,0.0716 -0.102802,0.1499 -0.1542,0.22484 -1.091975,1.17149 -0.278108,0.33574 -3.710638,2.21989 -0.259067,0.1422 -0.627475,-0.0218 -0.862801,-0.12648 -0.376563,-0.21781 -0.758108,-0.44439 -1.071666,-0.74865 -0.416874,-0.45669 -0.741317,-0.97456 -1.139158,-1.44782 -0.465354,-0.61442 -0.94126,-1.22079 -1.426821,-1.8193 0,0 3.331996,-2.00052 3.331996,-2.00052 z"
       id="path30" />
    <path
       style="stroke-width:0.26458332"
       d="m 38.146357,126.32169 c 0.01019,0.83549 -0.09197,1.66461 -0.165954,2.49529 -0.01678,0.60392 -0.174729,1.18808 -0.272021,1.78086 -0.07301,0.49388 -0.08185,0.99381 -0.08896,1.49206 0.03244,0.58132 -0.146637,1.12138 -0.409152,1.63108 -0.312647,0.5471 -0.689467,1.02934 -1.168056,1.43853 -1.823577,1.29489 -3.185464,2.86233 -5.079185,1.80958 -0.392493,-0.31612 -0.644792,-0.76584 -0.962408,-1.15089 -0.407996,-0.37026 -0.679424,-0.81592 -0.917377,-1.30548 -0.302461,-0.4914 -0.490667,-1.02418 -0.600636,-1.58745 -0.106238,-0.55049 -0.07616,-1.09221 0.130106,-1.61284 0.290478,-0.58307 0.848548,-0.91478 1.386856,-1.23999 1.5283,-0.90072 3.042886,-1.8448 4.681358,-2.532 0,0 -3.027021,2.39625 -3.027021,2.39625 v 0 c -1.308897,0.59845 -3.69765,1.84478 1.956204,-1.25734 -0.508129,0.30329 -1.080137,0.5637 -1.454954,1.03519 -0.283221,0.42236 -0.328348,0.88898 -0.244785,1.38709 0.08591,0.53399 0.253924,1.03423 0.548344,1.49293 0.229161,0.46486 0.489847,0.87554 0.879549,1.22781 0.272495,0.34711 0.503759,0.75333 0.86655,1.01144 0.236789,0.0997 0.47988,0.19775 0.744228,0.17457 0.08667,-0.008 0.328422,-0.10401 0.254442,-0.0582 -2.263225,1.40079 -4.183541,2.35819 -2.756323,1.64077 0.514292,-0.34123 0.90987,-0.76376 1.211019,-1.30504 0.315172,-0.40617 0.513257,-0.91797 0.498573,-1.43628 0.0035,-0.51358 0.0065,-1.02849 0.06412,-1.53949 0.08098,-0.59732 0.269134,-1.17288 0.309042,-1.7749 0.07791,-0.81349 0.198577,-1.6283 0.14964,-2.4471 0,0 3.466806,-1.76643 3.466806,-1.76643 z"
       id="path32" />
    <path
       style="stroke-width:0.26458332"
       d="m 55.959827,109.7643 c 0.438594,-0.90885 0.828193,-1.83916 1.185725,-2.78246 0.269885,-0.80518 0.543208,-1.60913 0.869132,-2.39359 0.292687,-0.60894 0.647409,-1.18516 0.991187,-1.76597 0.344297,-0.61719 0.617601,-1.26905 0.891699,-1.91929 0.572765,-1.504023 3.161959,-3.60827 4.346784,-2.341641 0.09409,0.100584 0.159697,0.224444 0.239549,0.336667 0.452437,0.890463 0.812323,1.822134 1.205473,2.739124 0.302821,0.65845 0.411623,1.36623 0.459899,2.08223 0.03883,0.72923 0.02212,1.45967 0.01863,2.18947 0.03656,0.75577 -0.05745,1.50369 -0.146526,2.25192 -0.0274,0.59764 -0.120089,1.15322 -0.412663,1.67899 -0.123608,0.22322 -0.250552,0.4431 -0.387434,0.65839 0,0 -3.569383,1.53596 -3.569383,1.53596 v 0 c 0.170405,-0.18706 0.308647,-0.38269 0.4064,-0.61912 0.09002,-0.14159 0.20048,-0.27064 0.279276,-0.41877 0.184052,-0.34601 0.165296,-0.74273 0.212741,-1.11962 0.09211,-0.73735 0.223745,-1.47091 0.179938,-2.21757 0.0011,-0.72055 0.0019,-1.44141 -0.01794,-2.16172 -0.03749,-0.67632 -0.112184,-1.34827 -0.383672,-1.97748 -0.360157,-0.89414 -0.704168,-1.7984 -1.170848,-2.64414 -0.107212,-0.12636 -0.165129,-0.26591 -0.35433,-0.265 -0.05389,2.6e-4 -0.195053,0.0907 -0.149156,0.0624 5.551331,-3.416779 3.406942,-2.629167 2.749193,-1.386459 -0.268859,0.661358 -0.537933,1.321789 -0.860581,1.958929 -0.323088,0.58598 -0.693799,1.1417 -1.011055,1.73164 -0.363554,0.77007 -0.641144,1.57839 -0.909863,2.38551 -0.338629,0.94163 -0.732319,1.86032 -1.129794,2.77834 0,0 -3.532384,1.62324 -3.532384,1.62324 z"
       id="path34" />
    <path
       style="stroke-width:0.26458332"
       d="m 48.788843,114.07484 c -0.188955,-0.75638 -0.312052,-1.52622 -0.471109,-2.28893 -0.142631,-0.63338 -0.217239,-1.27749 -0.255418,-1.92465 -0.01754,-0.53962 -0.04197,-1.08094 -0.0013,-1.61978 0.134554,-0.75001 0.32135,-1.49081 0.477263,-2.23729 0.146746,-0.85681 0.3341,-1.70267 0.599512,-2.53041 0.343553,-0.8152 0.431929,-1.70693 0.72816,-2.5345 1.226867,-2.123256 3.172555,-3.293196 4.412921,-1.624024 0.432446,0.636407 0.873639,1.266304 1.311463,1.898984 0.476999,0.81894 0.855501,1.69083 1.345862,2.50208 0.340698,0.57982 0.707765,1.14147 1.087929,1.69581 0.05246,0.0582 0.104929,0.11639 0.157393,0.17459 0,0 -3.326908,2.005 -3.326908,2.005 v 0 c -0.05914,-0.0713 -0.118277,-0.14259 -0.177416,-0.21388 -0.380979,-0.56288 -0.732142,-1.14407 -1.070671,-1.73338 -0.47407,-0.80959 -0.86736,-1.66243 -1.33659,-2.47457 -0.440111,-0.62243 -0.874165,-1.2491 -1.323282,-1.86503 -0.08482,-0.0984 -0.164836,-0.22284 -0.293722,-0.27401 -0.18079,-0.0718 -0.241541,0.0686 -0.233032,0.0635 3.085687,-1.83496 4.138943,-2.650403 2.974753,-1.760725 -0.458348,0.746345 -0.401217,1.702575 -0.766017,2.496275 -0.264877,0.8197 -0.510431,1.64015 -0.627533,2.49718 -0.147386,0.73261 -0.293926,1.46489 -0.4591,2.19335 -0.09019,0.51405 -0.02453,1.04237 -0.03111,1.56222 0.02492,0.63134 0.07872,1.26159 0.210286,1.88089 0.153714,0.75153 0.265805,1.51299 0.482692,2.24979 0,0 -3.414956,1.86148 -3.414956,1.86148 z"
       id="path36" />
    <ellipse
       style="stroke-width:0.26458332"
       ry="3.2264364"
       rx="3.5573771"
       cy="139.47694"
       cx="103.32381"
       id="path38" />
    <ellipse
       style="stroke-width:0.26458332"
       ry="2.8523099"
       rx="3.5466514"
       cy="127.87459"
       cx="72.965034"
       id="path40" />
    <ellipse
       style="stroke-width:0.26458332"
       ry="3.4317212"
       rx="3.0392292"
       cy="130.15532"
       cx="112.27808"
       id="path42" />
    <ellipse
       style="stroke-width:0.26458332"
       ry="3.6106493"
       rx="2.7882719"
       cy="133.85345"
       cx="82.34993"
       id="path44" />
  </g>
</svg>
